<svg xmlns="http://www.w3.org/2000/svg" xmlns:xlink="http://www.w3.org/1999/xlink" viewBox="0,0,256,256" width="24px" height="24px" fill-rule="nonzero"><g fill="#e66b2d" fill-rule="nonzero" stroke="none" stroke-width="1" stroke-linecap="butt" stroke-linejoin="miter" stroke-miterlimit="10" stroke-dasharray="" stroke-dashoffset="0" font-family="none" font-weight="none" font-size="none" text-anchor="none" style="mix-blend-mode: normal"><g transform="scale(10.66667,10.66667)"><path d="M24,4.30078c-0.89844,0.39844 -1.80078,0.69922 -2.80078,0.80078c1,-0.60156 1.80078,-1.60156 2.19922,-2.70312c-1,0.60156 -2,1 -3.09766,1.20313c-1,-1 -2.30078,-1.60156 -3.69922,-1.60156c-2.70312,0 -4.90234,2.19922 -4.90234,4.89844c0,0.40234 0,0.80078 0.10156,1.10156c-4.10156,-0.19922 -7.69922,-2.10156 -10.10156,-5.10156c-0.5,0.70313 -0.69922,1.60156 -0.69922,2.5c0,1.70313 0.89844,3.20313 2.19922,4.10156c-0.80078,-0.10156 -1.59766,-0.30078 -2.19922,-0.60156c0,0 0,0 0,0.10156c0,2.39844 1.69922,4.39844 3.89844,4.80078c-0.39844,0.09766 -0.79687,0.19922 -1.29687,0.19922c-0.30078,0 -0.60156,0 -0.90234,-0.10156c0.60156,2 2.40234,3.40234 4.60156,3.40234c-1.69922,1.30078 -3.80078,2.09766 -6.10156,2.09766c-0.39844,0 -0.80078,0 -1.19922,-0.09766c2.19922,1.39844 4.80078,2.19922 7.5,2.19922c9.10156,0 14,-7.5 14,-14c0,-0.19922 0,-0.39844 0,-0.60156c1,-0.69922 1.80078,-1.59766 2.5,-2.59766"></path></g></g></svg>