<svg xmlns="http://www.w3.org/2000/svg" viewBox="0 0 206.44 88.36"><defs><style>.cls-1{fill:#f4efec;}</style></defs><g id="Layer_2" data-name="Layer 2"><g id="Layer_1-2" data-name="Layer 1"><path class="cls-1" d="M81.13,1.94c7.36,0,12.16,3.47,12.16,9.05a8,8,0,0,1-7.36,8.18c5.15.47,8.87,4,8.87,8.87,0,5.88-5.41,9.61-13.24,9.61H63.26V1.94Zm4.34,10.44c0-2.66-1.93-4.12-5.17-4.12H71.15v8.53h9.17C83.43,16.79,85.47,15.12,85.47,12.38ZM81,31.33c3.92,0,5.91-1.4,5.91-4.39s-2-4.39-5.9-4.39H71.15v8.78Z"/><path class="cls-1" d="M104.75,37.65H97.27V10.12h7.48v9.56c1-5.89,3.81-9.56,9.2-9.56h1.64v7H112.7c-6.13,0-8,2.49-8,7.93Z"/><path class="cls-1" d="M125.67,7.23H118V.69h7.63Zm-.08,30.42h-7.48V10.12h7.48Z"/><path class="cls-1" d="M156.24,10.12V34c0,8.48-5.42,13.9-14,13.9-8,0-13.53-4.6-13.53-11.17h7.46c0,3.17,2.47,5.35,6,5.35,4.1,0,6.61-3.06,6.61-8V27.86c-1.22,5.42-4.55,8.54-9.35,8.54-6.46,0-11-5.6-11-13.62s4.58-13.41,11-13.41c4.8,0,8.13,3,9.35,8.35v-7.6ZM142.19,15.8c-4.09,0-6.29,2.27-6.29,7S138.1,30,142.19,30s6.57-2.61,6.57-7.18S146.41,15.8,142.19,15.8Z"/><path class="cls-1" d="M166.92,37.65h-7.48V.69h7.48V18.38c1.16-5.82,4.57-9,9.68-9,5.93,0,9.14,4.32,9.14,12.28v16h-7.48V22.9c0-4.69-1.75-7-5.34-7-3.82,0-6,2.6-6,7.33Z"/><path class="cls-1" d="M200.27,38.39c-6.05,0-9.23-3.59-9.23-10.59V16.06H187.6V10.12H191V3.77h7.48v6.35h7.92v5.94h-7.92V27.81c0,3.16,1.11,4.56,3.66,4.56a18.56,18.56,0,0,0,4.26-.7v5.77A23.45,23.45,0,0,1,200.27,38.39Z"/><path class="cls-1" d="M63.26,51.9H80.17c8.06,0,13.64,4.88,13.64,11.91s-5.6,12-13.64,12h-9V87.61H63.26ZM79.74,69.24c3.85,0,6.18-2,6.18-5.43s-2.31-5.39-6.12-5.39H71.15V69.24Z"/><path class="cls-1" d="M108.72,59.33c8.4,0,13.37,4.42,13.37,12V87.61h-7.48v-7c-1.23,4.82-5.18,7.79-10.56,7.79-5.63,0-9.38-3.25-9.38-8.13,0-5.22,4.26-8.31,11.44-8.31h8.5v-.64c0-3.79-2.23-6.06-6.07-6.06s-5.6,1.9-5.6,5H95.48C95.48,63.5,100.54,59.33,108.72,59.33Zm-1.84,17.13c-3.09,0-4.73,1.06-4.73,3.08s1.75,3.25,4.85,3.25c4.38,0,7.61-2.35,7.61-5.52v-.81Z"/><path class="cls-1" d="M136.62,88.35c-6.05,0-9.23-3.58-9.23-10.59V66H124V60.08h3.44V53.73h7.48v6.35h7.92V66h-7.92V77.77c0,3.16,1.12,4.56,3.66,4.56a18,18,0,0,0,4.26-.7V87.4A23.45,23.45,0,0,1,136.62,88.35Z"/><path class="cls-1" d="M153,87.61h-7.48v-37H153V68.34c1.16-5.82,4.57-9,9.67-9,5.93,0,9.14,4.32,9.14,12.29v16h-7.48V72.86c0-4.69-1.74-7-5.34-7-3.82,0-6,2.6-6,7.33Z"/><path class="cls-1" d="M2.29,62.74,27.34,48.28a1.62,1.62,0,0,0-.82-.09H1.08c-1.23,0-1.07.14-1.08-1.09V40.91c0-.74,0-.74.73-.74h26a1,1,0,0,0,.52,0c0-.2-.16-.21-.26-.27L3.08,26.05c-1-.59-.93-.36-.38-1.31Q4.28,22,5.88,19.21c.06-.11.14-.23.2-.35s.26-.22.44-.09l.35.2,23.74,13.7a1.93,1.93,0,0,0,.69.33.74.74,0,0,0-.18-.5L22.64,17.81,17.39,8.73c-.09-.15-.17-.32-.27-.47s-.14-.41.13-.54l.18-.1,5.93-3.43c.5-.29.51-.28.81.23q6.9,12,13.81,23.9a1.72,1.72,0,0,0,.5.68V.82c0-.93-.08-.81.85-.82h6.85c.23,0,.33.1.32.33s0,.31,0,.47q0,16.53,0,33c0,1-.07.8-.82.63a9.92,9.92,0,1,0,.08,19.36,2,2,0,0,0,.33-.08c.3-.08.43,0,.41.33,0,.12,0,.23,0,.34q0,16.53,0,33c0,1,.09.89-.86.89H39.27c-.84,0-.79,0-.79-.76V59.33a1.22,1.22,0,0,0-.44.58L30.4,73.12,24.2,83.87c-.06.1-.12.19-.17.29a.29.29,0,0,1-.45.12L23.17,84l-5.64-3.26c-.6-.35-.61-.35-.26-1L28,61.33l3.12-5.41.32-.57c-.29-.06-.44.13-.62.23L6.87,69.37c-.7.41-.6.44-1-.26-1.13-1.93-2.24-3.88-3.35-5.82A1.27,1.27,0,0,1,2.29,62.74Z"/></g></g></svg>