<svg xmlns="http://www.w3.org/2000/svg" viewBox="0 0 46.51 88.36"><defs><style>.cls-1{fill:#f4efec;}</style></defs><g id="Layer_2" data-name="Layer 2"><g id="Layer_1-2" data-name="Layer 1"><path class="cls-1" d="M2.29,62.74,27.34,48.28a1.62,1.62,0,0,0-.82-.09H1.08c-1.23,0-1.07.14-1.08-1.09V40.91c0-.74,0-.74.73-.74h26a1,1,0,0,0,.52,0c0-.2-.16-.21-.26-.27L3.08,26.05c-1-.59-.93-.36-.38-1.31Q4.28,22,5.88,19.21c.06-.11.14-.23.2-.35s.26-.22.44-.09l.35.2,23.74,13.7a1.93,1.93,0,0,0,.69.33.74.74,0,0,0-.18-.5L22.64,17.81,17.39,8.73c-.09-.15-.17-.32-.27-.47s-.14-.41.13-.54l.18-.1,5.93-3.43c.5-.29.51-.28.81.23q6.9,12,13.81,23.9a1.72,1.72,0,0,0,.5.68V.82c0-.93-.08-.81.85-.82h6.85c.23,0,.33.1.32.33s0,.31,0,.47q0,16.53,0,33c0,1-.07.8-.82.63a9.92,9.92,0,1,0,.08,19.36,2,2,0,0,0,.33-.08c.3-.08.43,0,.41.33,0,.12,0,.23,0,.34q0,16.53,0,33c0,1,.09.89-.86.89H39.27c-.84,0-.79,0-.79-.76V59.33a1.22,1.22,0,0,0-.44.58L30.4,73.12,24.2,83.87c-.06.1-.12.19-.17.29a.29.29,0,0,1-.45.12L23.17,84l-5.64-3.26c-.6-.35-.61-.35-.26-1L28,61.33l3.12-5.41.32-.57c-.29-.06-.44.13-.62.23L6.87,69.37c-.7.41-.6.44-1-.26-1.13-1.93-2.24-3.88-3.35-5.82A1.27,1.27,0,0,1,2.29,62.74Z"/></g></g></svg>